<?xml version="1.0" encoding="UTF-8" standalone="no"?>
<!-- Created with Inkscape (http://www.inkscape.org/) -->

<svg
   xmlns:dc="http://purl.org/dc/elements/1.1/"
   xmlns:cc="http://creativecommons.org/ns#"
   xmlns:rdf="http://www.w3.org/1999/02/22-rdf-syntax-ns#"
   xmlns:svg="http://www.w3.org/2000/svg"
   xmlns="http://www.w3.org/2000/svg"
   xmlns:sodipodi="http://sodipodi.sourceforge.net/DTD/sodipodi-0.dtd"
   xmlns:inkscape="http://www.inkscape.org/namespaces/inkscape"
   width="210mm"
   height="297mm"
   viewBox="0 0 744.09448819 1052.3622047"
   id="svg3794"
   version="1.1"
   inkscape:version="0.91 r13725"
   sodipodi:docname="Deep.svg">
  <defs
     id="defs3796">
    <marker
       inkscape:stockid="Arrow1Mstart"
       orient="auto"
       refY="0"
       refX="0"
       id="Arrow1Mstart-3"
       style="overflow:visible"
       inkscape:isstock="true">
      <path
         inkscape:connector-curvature="0"
         id="path4219-2"
         d="M 0,0 5,-5 -12.5,0 5,5 0,0 Z"
         style="fill:#000000;fill-opacity:1;fill-rule:evenodd;stroke:#000000;stroke-width:1pt;stroke-opacity:1"
         transform="matrix(0.4,0,0,0.4,4,0)" />
    </marker>
    <marker
       inkscape:stockid="Arrow1Mstart"
       orient="auto"
       refY="0"
       refX="0"
       id="Arrow1Mstart"
       style="overflow:visible"
       inkscape:isstock="true">
      <path
         inkscape:connector-curvature="0"
         id="path4219"
         d="M 0,0 5,-5 -12.5,0 5,5 0,0 Z"
         style="fill:#000000;fill-opacity:1;fill-rule:evenodd;stroke:#000000;stroke-width:1pt;stroke-opacity:1"
         transform="matrix(0.4,0,0,0.4,4,0)" />
    </marker>
  </defs>
  <sodipodi:namedview
     id="base"
     pagecolor="#ffffff"
     bordercolor="#666666"
     borderopacity="1.0"
     inkscape:pageopacity="0.0"
     inkscape:pageshadow="2"
     inkscape:zoom="0.35"
     inkscape:cx="375"
     inkscape:cy="520"
     inkscape:document-units="px"
     inkscape:current-layer="layer1"
     showgrid="false"
     inkscape:window-width="1920"
     inkscape:window-height="1053"
     inkscape:window-x="0"
     inkscape:window-y="27"
     inkscape:window-maximized="0" />
  <metadata
     id="metadata3799">
    <rdf:RDF>
      <cc:Work
         rdf:about="">
        <dc:format>image/svg+xml</dc:format>
        <dc:type
           rdf:resource="http://purl.org/dc/dcmitype/StillImage" />
        <dc:title></dc:title>
      </cc:Work>
    </rdf:RDF>
  </metadata>
  <g
     inkscape:label="Layer 1"
     inkscape:groupmode="layer"
     id="layer1">
    <path
       style="fill:#ff8080;fill-opacity:1;stroke:#ececec;stroke-width:8.26885033;stroke-miterlimit:4;stroke-dasharray:none"
       id="path3363-2"
       sodipodi:type="arc"
       sodipodi:cx="369.82986"
       sodipodi:cy="900.83075"
       sodipodi:rx="253.88841"
       sodipodi:ry="72.452095"
       sodipodi:start="0"
       sodipodi:end="6.2048978"
       d="m 623.71828,900.83075 a 253.88841,72.452095 0 0 1 -248.91966,72.43822 253.88841,72.452095 0 0 1 -258.66268,-69.6029 253.88841,72.452095 0 0 1 238.79527,-75.16256 253.88841,72.452095 0 0 1 268.00943,66.66094"
       sodipodi:open="true" />
    <path
       style="fill:#d4ff2a;fill-opacity:1;stroke:#ececec;stroke-width:8.26885033;stroke-miterlimit:4;stroke-dasharray:none"
       id="path3367-2"
       sodipodi:type="arc"
       sodipodi:cx="364.65906"
       sodipodi:cy="178.19221"
       sodipodi:rx="98.183403"
       sodipodi:ry="83.891899"
       sodipodi:start="0"
       sodipodi:end="6.2048898"
       sodipodi:open="true"
       d="m 462.84246,178.19221 a 98.183403,83.891899 0 0 1 -96.2617,83.87583 98.183403,83.891899 0 0 1 -100.02988,-80.59248 98.183403,83.891899 0 0 1 92.346,-87.030646 98.183403,83.891899 0 0 1 103.64479,77.185646" />
    <path
       style="fill:#ffe680;fill-opacity:1;stroke:#ececec;stroke-width:8.26885033;stroke-miterlimit:4;stroke-dasharray:none"
       id="path3369-8"
       sodipodi:type="arc"
       sodipodi:cx="303.21613"
       sodipodi:cy="656.45142"
       sodipodi:rx="47.604076"
       sodipodi:ry="40.039314"
       sodipodi:start="0"
       sodipodi:end="6.2048898"
       sodipodi:open="true"
       d="m 350.8202,656.45142 a 47.604076,40.039314 0 0 1 -46.67234,40.03164 47.604076,40.039314 0 0 1 -48.49934,-38.4646 47.604076,40.039314 0 0 1 44.77382,-41.53735 47.604076,40.039314 0 0 1 50.25203,36.83861" />
    <path
       style="fill:#ffe680;fill-opacity:1;stroke:#ececec;stroke-width:8.26885033;stroke-miterlimit:4;stroke-dasharray:none"
       id="path3369-3-9"
       sodipodi:type="arc"
       sodipodi:cx="440.47879"
       sodipodi:cy="657.45605"
       sodipodi:rx="47.604076"
       sodipodi:ry="40.039314"
       sodipodi:start="0"
       sodipodi:end="6.2048898"
       sodipodi:open="true"
       d="m 488.08287,657.45605 a 47.604076,40.039314 0 0 1 -46.67234,40.03165 47.604076,40.039314 0 0 1 -48.49934,-38.4646 47.604076,40.039314 0 0 1 44.77382,-41.53735 47.604076,40.039314 0 0 1 50.25202,36.83861" />
    <path
       style="fill:#ffe680;fill-opacity:1;stroke:#ececec;stroke-width:8.26885033;stroke-miterlimit:4;stroke-dasharray:none"
       id="path3369-3-6-7"
       sodipodi:type="arc"
       sodipodi:cx="575.54608"
       sodipodi:cy="653.2428"
       sodipodi:rx="47.604076"
       sodipodi:ry="40.039314"
       sodipodi:start="0"
       sodipodi:end="6.2048898"
       sodipodi:open="true"
       d="m 623.15016,653.2428 a 47.604076,40.039314 0 0 1 -46.67234,40.03164 47.604076,40.039314 0 0 1 -48.49934,-38.46459 47.604076,40.039314 0 0 1 44.77382,-41.53735 47.604076,40.039314 0 0 1 50.25202,36.8386" />
    <path
       style="fill:#ffe680;fill-opacity:1;stroke:#ececec;stroke-width:8.26885033;stroke-miterlimit:4;stroke-dasharray:none"
       id="path3369-3-7-3"
       sodipodi:type="arc"
       sodipodi:cx="162.19284"
       sodipodi:cy="656.55371"
       sodipodi:rx="47.604076"
       sodipodi:ry="40.039314"
       sodipodi:start="0"
       sodipodi:end="6.2048898"
       sodipodi:open="true"
       d="m 209.79692,656.55371 a 47.604076,40.039314 0 0 1 -46.67234,40.03165 47.604076,40.039314 0 0 1 -48.49934,-38.4646 47.604076,40.039314 0 0 1 44.77382,-41.53735 47.604076,40.039314 0 0 1 50.25202,36.8386" />
    <path
       style="fill:#ffe680;fill-opacity:1;stroke:#ececec;stroke-width:8.26885033;stroke-miterlimit:4;stroke-dasharray:none"
       id="path3369-8-8"
       sodipodi:type="arc"
       sodipodi:cx="306.39316"
       sodipodi:cy="535.60669"
       sodipodi:rx="47.604076"
       sodipodi:ry="40.039314"
       sodipodi:start="0"
       sodipodi:end="6.2048898"
       sodipodi:open="true"
       d="m 353.99723,535.60669 a 47.604076,40.039314 0 0 1 -46.67234,40.03164 47.604076,40.039314 0 0 1 -48.49934,-38.46459 47.604076,40.039314 0 0 1 44.77383,-41.53735 47.604076,40.039314 0 0 1 50.25202,36.8386" />
    <path
       style="fill:#ffe680;fill-opacity:1;stroke:#ececec;stroke-width:8.26885033;stroke-miterlimit:4;stroke-dasharray:none"
       id="path3369-3-9-4"
       sodipodi:type="arc"
       sodipodi:cx="443.65582"
       sodipodi:cy="536.61151"
       sodipodi:rx="47.604076"
       sodipodi:ry="40.039314"
       sodipodi:start="0"
       sodipodi:end="6.2048898"
       sodipodi:open="true"
       d="m 491.2599,536.61151 a 47.604076,40.039314 0 0 1 -46.67234,40.03165 47.604076,40.039314 0 0 1 -48.49934,-38.4646 47.604076,40.039314 0 0 1 44.77382,-41.53735 47.604076,40.039314 0 0 1 50.25202,36.8386" />
    <path
       style="fill:#ffe680;fill-opacity:1;stroke:#ececec;stroke-width:8.26885033;stroke-miterlimit:4;stroke-dasharray:none"
       id="path3369-3-6-7-5"
       sodipodi:type="arc"
       sodipodi:cx="578.72235"
       sodipodi:cy="532.39807"
       sodipodi:rx="47.604076"
       sodipodi:ry="40.039314"
       sodipodi:start="0"
       sodipodi:end="6.2048898"
       sodipodi:open="true"
       d="m 626.32643,532.39807 a 47.604076,40.039314 0 0 1 -46.67234,40.03165 47.604076,40.039314 0 0 1 -48.49934,-38.4646 47.604076,40.039314 0 0 1 44.77382,-41.53735 47.604076,40.039314 0 0 1 50.25202,36.8386" />
    <path
       style="fill:#ffe680;fill-opacity:1;stroke:#ececec;stroke-width:8.26885033;stroke-miterlimit:4;stroke-dasharray:none"
       id="path3369-3-7-3-0"
       sodipodi:type="arc"
       sodipodi:cx="165.3696"
       sodipodi:cy="535.70917"
       sodipodi:rx="47.604076"
       sodipodi:ry="40.039314"
       sodipodi:start="0"
       sodipodi:end="6.2048898"
       sodipodi:open="true"
       d="m 212.97367,535.70917 a 47.604076,40.039314 0 0 1 -46.67233,40.03164 47.604076,40.039314 0 0 1 -48.49934,-38.46459 47.604076,40.039314 0 0 1 44.77382,-41.53735 47.604076,40.039314 0 0 1 50.25202,36.8386" />
    <path
       style="fill:#ffe680;fill-opacity:1;stroke:#ececec;stroke-width:8.26885033;stroke-miterlimit:4;stroke-dasharray:none"
       id="path3369-8-3"
       sodipodi:type="arc"
       sodipodi:cx="311.19266"
       sodipodi:cy="407.4696"
       sodipodi:rx="47.604076"
       sodipodi:ry="40.039314"
       sodipodi:start="0"
       sodipodi:end="6.2048898"
       sodipodi:open="true"
       d="m 358.79673,407.4696 a 47.604076,40.039314 0 0 1 -46.67234,40.03165 47.604076,40.039314 0 0 1 -48.49934,-38.4646 47.604076,40.039314 0 0 1 44.77382,-41.53735 47.604076,40.039314 0 0 1 50.25203,36.83861" />
    <path
       style="fill:#ffe680;fill-opacity:1;stroke:#ececec;stroke-width:8.26885033;stroke-miterlimit:4;stroke-dasharray:none"
       id="path3369-3-9-6"
       sodipodi:type="arc"
       sodipodi:cx="448.4552"
       sodipodi:cy="408.47421"
       sodipodi:rx="47.604076"
       sodipodi:ry="40.039314"
       sodipodi:start="0"
       sodipodi:end="6.2048898"
       sodipodi:open="true"
       d="m 496.05928,408.47421 a 47.604076,40.039314 0 0 1 -46.67234,40.03165 47.604076,40.039314 0 0 1 -48.49934,-38.4646 47.604076,40.039314 0 0 1 44.77382,-41.53735 47.604076,40.039314 0 0 1 50.25202,36.83861" />
    <path
       style="fill:#ffe680;fill-opacity:1;stroke:#ececec;stroke-width:8.26885033;stroke-miterlimit:4;stroke-dasharray:none"
       id="path3369-3-6-7-1"
       sodipodi:type="arc"
       sodipodi:cx="583.52234"
       sodipodi:cy="404.26071"
       sodipodi:rx="47.604076"
       sodipodi:ry="40.039314"
       sodipodi:start="0"
       sodipodi:end="6.2048898"
       sodipodi:open="true"
       d="m 631.12642,404.26071 a 47.604076,40.039314 0 0 1 -46.67234,40.03165 47.604076,40.039314 0 0 1 -48.49934,-38.4646 47.604076,40.039314 0 0 1 44.77382,-41.53735 47.604076,40.039314 0 0 1 50.25202,36.83861" />
    <path
       style="fill:#ffe680;fill-opacity:1;stroke:#ececec;stroke-width:8.26885033;stroke-miterlimit:4;stroke-dasharray:none"
       id="path3369-3-7-3-06"
       sodipodi:type="arc"
       sodipodi:cx="170.16898"
       sodipodi:cy="407.57184"
       sodipodi:rx="47.604076"
       sodipodi:ry="40.039314"
       sodipodi:start="0"
       sodipodi:end="6.2048898"
       sodipodi:open="true"
       d="m 217.77305,407.57184 a 47.604076,40.039314 0 0 1 -46.67234,40.03164 47.604076,40.039314 0 0 1 -48.49934,-38.46459 47.604076,40.039314 0 0 1 44.77382,-41.53735 47.604076,40.039314 0 0 1 50.25203,36.8386" />
    <path
       style="fill:none;fill-rule:evenodd;stroke:#000000;stroke-width:7.67052603;stroke-linecap:butt;stroke-linejoin:miter;stroke-miterlimit:4;stroke-dasharray:none;stroke-opacity:1;marker-start:url(#Arrow1Mstart)"
       d="m 371.93952,716.32549 c 3.96703,97.23829 5.95053,110.58477 5.95053,110.58477"
       id="path26398"
       inkscape:connector-curvature="0" />
    <path
       style="fill:none;fill-rule:evenodd;stroke:#000000;stroke-width:7.09808731;stroke-linecap:butt;stroke-linejoin:miter;stroke-miterlimit:4;stroke-dasharray:none;stroke-opacity:1;marker-start:url(#Arrow1Mstart-3)"
       d="m 373.06551,276.25207 c 4.37422,75.51615 6.5613,85.88112 6.5613,85.88112"
       id="path26398-0"
       inkscape:connector-curvature="0" />
    <text
       xml:space="preserve"
       style="font-style:normal;font-weight:normal;font-size:67.54423523px;line-height:125%;font-family:sans-serif;letter-spacing:0px;word-spacing:0px;fill:#000000;fill-opacity:1;stroke:none;stroke-width:1px;stroke-linecap:butt;stroke-linejoin:miter;stroke-opacity:1"
       x="253.5448"
       y="944.87018"
       id="text28061-6"
       sodipodi:linespacing="125%"
       transform="scale(1.0199592,0.9804314)"><tspan
         sodipodi:role="line"
         id="tspan28063-1"
         x="253.5448"
         y="944.87018">Entrée</tspan></text>
  </g>
</svg>
