<?xml version="1.0" encoding="UTF-8" standalone="no"?>
<!-- Created with Inkscape (http://www.inkscape.org/) -->

<svg
   xmlns:dc="http://purl.org/dc/elements/1.1/"
   xmlns:cc="http://creativecommons.org/ns#"
   xmlns:rdf="http://www.w3.org/1999/02/22-rdf-syntax-ns#"
   xmlns:svg="http://www.w3.org/2000/svg"
   xmlns="http://www.w3.org/2000/svg"
   xmlns:sodipodi="http://sodipodi.sourceforge.net/DTD/sodipodi-0.dtd"
   xmlns:inkscape="http://www.inkscape.org/namespaces/inkscape"
   width="210mm"
   height="297mm"
   viewBox="0 0 744.09448819 1052.3622047"
   id="svg3612"
   version="1.1"
   inkscape:version="0.91 r13725"
   sodipodi:docname="Shallow.svg">
  <defs
     id="defs3614">
    <marker
       inkscape:isstock="true"
       style="overflow:visible"
       id="marker6157-0"
       refX="0"
       refY="0"
       orient="auto"
       inkscape:stockid="Arrow1Lstart">
      <path
         inkscape:connector-curvature="0"
         transform="matrix(0.8,0,0,0.8,10,0)"
         style="fill:#000000;fill-opacity:1;fill-rule:evenodd;stroke:#000000;stroke-width:1pt;stroke-opacity:1"
         d="M 0,0 5,-5 -12.5,0 5,5 0,0 Z"
         id="path6159-9" />
    </marker>
    <marker
       inkscape:isstock="true"
       style="overflow:visible"
       id="marker6157-1"
       refX="0"
       refY="0"
       orient="auto"
       inkscape:stockid="Arrow1Lstart">
      <path
         inkscape:connector-curvature="0"
         transform="matrix(0.8,0,0,0.8,10,0)"
         style="fill:#000000;fill-opacity:1;fill-rule:evenodd;stroke:#000000;stroke-width:1pt;stroke-opacity:1"
         d="M 0,0 5,-5 -12.5,0 5,5 0,0 Z"
         id="path6159-2" />
    </marker>
    <marker
       inkscape:isstock="true"
       style="overflow:visible"
       id="marker6157-5"
       refX="0"
       refY="0"
       orient="auto"
       inkscape:stockid="Arrow1Lstart">
      <path
         inkscape:connector-curvature="0"
         transform="matrix(0.8,0,0,0.8,10,0)"
         style="fill:#000000;fill-opacity:1;fill-rule:evenodd;stroke:#000000;stroke-width:1pt;stroke-opacity:1"
         d="M 0,0 5,-5 -12.5,0 5,5 0,0 Z"
         id="path6159-3" />
    </marker>
    <marker
       inkscape:isstock="true"
       style="overflow:visible"
       id="marker6157"
       refX="0"
       refY="0"
       orient="auto"
       inkscape:stockid="Arrow1Lstart"
       inkscape:collect="always">
      <path
         inkscape:connector-curvature="0"
         transform="matrix(0.8,0,0,0.8,10,0)"
         style="fill:#000000;fill-opacity:1;fill-rule:evenodd;stroke:#000000;stroke-width:1pt;stroke-opacity:1"
         d="M 0,0 5,-5 -12.5,0 5,5 0,0 Z"
         id="path6159" />
    </marker>
    <marker
       inkscape:stockid="Arrow1Lstart"
       orient="auto"
       refY="0"
       refX="0"
       id="marker4609"
       style="overflow:visible"
       inkscape:isstock="true"
       inkscape:collect="always">
      <path
         inkscape:connector-curvature="0"
         id="path4611"
         d="M 0,0 5,-5 -12.5,0 5,5 0,0 Z"
         style="fill:#000000;fill-opacity:1;fill-rule:evenodd;stroke:#000000;stroke-width:1pt;stroke-opacity:1"
         transform="matrix(0.8,0,0,0.8,10,0)" />
    </marker>
    <marker
       inkscape:isstock="true"
       style="overflow:visible"
       id="marker4567"
       refX="0"
       refY="0"
       orient="auto"
       inkscape:stockid="Arrow1Lstart"
       inkscape:collect="always">
      <path
         inkscape:connector-curvature="0"
         transform="matrix(0.8,0,0,0.8,10,0)"
         style="fill:#000000;fill-opacity:1;fill-rule:evenodd;stroke:#000000;stroke-width:1pt;stroke-opacity:1"
         d="M 0,0 5,-5 -12.5,0 5,5 0,0 Z"
         id="path4569" />
    </marker>
    <marker
       inkscape:stockid="Arrow1Lstart"
       orient="auto"
       refY="0"
       refX="0"
       id="Arrow1Lstart"
       style="overflow:visible"
       inkscape:isstock="true"
       inkscape:collect="always">
      <path
         inkscape:connector-curvature="0"
         id="path4213"
         d="M 0,0 5,-5 -12.5,0 5,5 0,0 Z"
         style="fill:#000000;fill-opacity:1;fill-rule:evenodd;stroke:#000000;stroke-width:1pt;stroke-opacity:1"
         transform="matrix(0.8,0,0,0.8,10,0)" />
    </marker>
    <marker
       inkscape:stockid="Arrow1Lend"
       orient="auto"
       refY="0"
       refX="0"
       id="Arrow1Lend"
       style="overflow:visible"
       inkscape:isstock="true">
      <path
         inkscape:connector-curvature="0"
         id="path4216"
         d="M 0,0 5,-5 -12.5,0 5,5 0,0 Z"
         style="fill:#000000;fill-opacity:1;fill-rule:evenodd;stroke:#000000;stroke-width:1pt;stroke-opacity:1"
         transform="matrix(-0.8,0,0,-0.8,-10,0)" />
    </marker>
  </defs>
  <sodipodi:namedview
     id="base"
     pagecolor="#ffffff"
     bordercolor="#666666"
     borderopacity="1.0"
     inkscape:pageopacity="0.0"
     inkscape:pageshadow="2"
     inkscape:zoom="0.35"
     inkscape:cx="375"
     inkscape:cy="520"
     inkscape:document-units="px"
     inkscape:current-layer="layer1"
     showgrid="false"
     inkscape:window-width="941"
     inkscape:window-height="1029"
     inkscape:window-x="965"
     inkscape:window-y="37"
     inkscape:window-maximized="0" />
  <metadata
     id="metadata3617">
    <rdf:RDF>
      <cc:Work
         rdf:about="">
        <dc:format>image/svg+xml</dc:format>
        <dc:type
           rdf:resource="http://purl.org/dc/dcmitype/StillImage" />
        <dc:title></dc:title>
      </cc:Work>
    </rdf:RDF>
  </metadata>
  <g
     inkscape:label="Layer 1"
     inkscape:groupmode="layer"
     id="layer1">
    <path
       style="fill:#ff8080;fill-opacity:1;stroke:#ececec;stroke-width:8.80324936;stroke-miterlimit:4;stroke-dasharray:none"
       id="path3363"
       sodipodi:type="arc"
       sodipodi:cx="372.1972"
       sodipodi:cy="897.75043"
       sodipodi:rx="287.94055"
       sodipodi:ry="72.408035"
       sodipodi:start="0"
       sodipodi:end="6.2048978"
       d="M 660.13776,897.75043 A 287.94055,72.408035 0 0 1 377.83238,970.14459 287.94055,72.408035 0 0 1 84.477221,900.58403 287.94055,72.408035 0 0 1 355.30031,825.46717 a 287.94055,72.408035 0 0 1 303.95551,66.6204"
       sodipodi:open="true" />
    <path
       style="fill:#d4ff2a;fill-opacity:1;stroke:#ececec;stroke-width:8.80324936;stroke-miterlimit:4;stroke-dasharray:none"
       id="path3367"
       sodipodi:type="arc"
       sodipodi:cx="366.33292"
       sodipodi:cy="175.55139"
       sodipodi:rx="111.352"
       sodipodi:ry="83.840889"
       sodipodi:start="0"
       sodipodi:end="6.2048898"
       sodipodi:open="true"
       d="M 477.68491,175.55139 A 111.352,83.840889 0 0 1 368.51237,259.37622 111.352,83.840889 0 0 1 255.06623,178.83274 111.352,83.840889 0 0 1 359.7979,91.855012 111.352,83.840889 0 0 1 477.34378,168.99373" />
    <path
       style="fill:#ffe680;fill-opacity:1;stroke:#ececec;stroke-width:8.80324936;stroke-miterlimit:4;stroke-dasharray:none"
       id="path3369"
       sodipodi:type="arc"
       sodipodi:cx="296.64865"
       sodipodi:cy="570.79199"
       sodipodi:rx="53.98885"
       sodipodi:ry="40.014965"
       sodipodi:start="0"
       sodipodi:end="6.2048898"
       sodipodi:open="true"
       d="m 350.6375,570.79199 a 53.98885,40.014965 0 0 1 -52.93215,40.0073 53.98885,40.014965 0 0 1 -55.00418,-38.4412 53.98885,40.014965 0 0 1 50.77899,-41.51209 53.98885,40.014965 0 0 1 56.99194,36.8162" />
    <path
       style="fill:#ffe680;fill-opacity:1;stroke:#ececec;stroke-width:8.80324936;stroke-miterlimit:4;stroke-dasharray:none"
       id="path3369-3"
       sodipodi:type="arc"
       sodipodi:cx="452.32169"
       sodipodi:cy="571.79602"
       sodipodi:rx="53.98885"
       sodipodi:ry="40.014965"
       sodipodi:start="0"
       sodipodi:end="6.2048898"
       sodipodi:open="true"
       d="m 506.31054,571.79602 a 53.98885,40.014965 0 0 1 -52.93215,40.0073 53.98885,40.014965 0 0 1 -55.00419,-38.4412 53.98885,40.014965 0 0 1 50.77899,-41.51209 53.98885,40.014965 0 0 1 56.99195,36.8162" />
    <path
       style="fill:#ffe680;fill-opacity:1;stroke:#ececec;stroke-width:8.80324936;stroke-miterlimit:4;stroke-dasharray:none"
       id="path3369-3-6"
       sodipodi:type="arc"
       sodipodi:cx="605.50415"
       sodipodi:cy="567.58508"
       sodipodi:rx="53.98885"
       sodipodi:ry="40.014965"
       sodipodi:start="0"
       sodipodi:end="6.2048898"
       sodipodi:open="true"
       d="m 659.493,567.58508 a 53.98885,40.014965 0 0 1 -52.93215,40.0073 53.98885,40.014965 0 0 1 -55.00418,-38.4412 53.98885,40.014965 0 0 1 50.77899,-41.51209 53.98885,40.014965 0 0 1 56.99194,36.8162" />
    <path
       style="fill:#ffe680;fill-opacity:1;stroke:#ececec;stroke-width:8.80324936;stroke-miterlimit:4;stroke-dasharray:none"
       id="path3369-3-7"
       sodipodi:type="arc"
       sodipodi:cx="136.70923"
       sodipodi:cy="570.89417"
       sodipodi:rx="53.98885"
       sodipodi:ry="40.014965"
       sodipodi:start="0"
       sodipodi:end="6.2048898"
       sodipodi:open="true"
       d="m 190.69808,570.89417 a 53.98885,40.014965 0 0 1 -52.93215,40.00729 53.98885,40.014965 0 0 1 -55.004186,-38.4412 53.98885,40.014965 0 0 1 50.778996,-41.51209 53.98885,40.014965 0 0 1 56.99194,36.8162" />
    <path
       style="fill:none;fill-rule:evenodd;stroke:#000000;stroke-width:3.70730209;stroke-linecap:butt;stroke-linejoin:miter;stroke-miterlimit:4;stroke-dasharray:none;stroke-opacity:1;marker-end:url(#Arrow1Lend)"
       d="M 149.02101,526.96609 355.97826,265.91605"
       id="path3407"
       inkscape:connector-curvature="0"
       sodipodi:nodetypes="cc" />
    <path
       style="fill:none;fill-rule:evenodd;stroke:#000000;stroke-width:3.70730209;stroke-linecap:butt;stroke-linejoin:miter;stroke-miterlimit:4;stroke-dasharray:none;stroke-opacity:1;marker-start:url(#Arrow1Lstart)"
       d="M 358.22781,265.91605 306.48848,526.96609"
       id="path4545"
       inkscape:connector-curvature="0"
       sodipodi:nodetypes="cc" />
    <path
       style="fill:none;fill-rule:evenodd;stroke:#000000;stroke-width:3.70730209;stroke-linecap:butt;stroke-linejoin:miter;stroke-miterlimit:4;stroke-dasharray:none;stroke-opacity:1;marker-start:url(#marker4567)"
       d="m 362.72687,265.91607 87.73189,261.05002"
       id="path4559"
       inkscape:connector-curvature="0"
       sodipodi:nodetypes="cc" />
    <path
       style="fill:none;fill-rule:evenodd;stroke:#000000;stroke-width:3.70730209;stroke-linecap:butt;stroke-linejoin:miter;stroke-miterlimit:4;stroke-dasharray:none;stroke-opacity:1;marker-start:url(#marker4609)"
       d="M 367.22595,265.91607 598.92809,521.24966"
       id="path4601"
       inkscape:connector-curvature="0"
       sodipodi:nodetypes="cc" />
    <path
       style="fill:none;fill-rule:evenodd;stroke:#000000;stroke-width:3.70730209;stroke-linecap:butt;stroke-linejoin:miter;stroke-miterlimit:4;stroke-dasharray:none;stroke-opacity:1;marker-start:url(#marker6157)"
       d="M 146.77146,610.80694 364.97642,820.40919"
       id="path6149"
       inkscape:connector-curvature="0"
       sodipodi:nodetypes="cc" />
    <path
       style="fill:none;fill-rule:evenodd;stroke:#000000;stroke-width:3.70730209;stroke-linecap:butt;stroke-linejoin:miter;stroke-miterlimit:4;stroke-dasharray:none;stroke-opacity:1;marker-start:url(#marker6157-5)"
       d="M 310.17793,619.41488 364.16681,817.5843"
       id="path6149-5"
       inkscape:connector-curvature="0"
       sodipodi:nodetypes="cc" />
    <path
       style="fill:none;fill-rule:evenodd;stroke:#000000;stroke-width:3.70730209;stroke-linecap:butt;stroke-linejoin:miter;stroke-miterlimit:4;stroke-dasharray:none;stroke-opacity:1;marker-start:url(#marker6157-1)"
       d="m 447.39958,619.41488 -76.4842,196.2639"
       id="path6149-7"
       inkscape:connector-curvature="0"
       sodipodi:nodetypes="cc" />
    <path
       style="fill:none;fill-rule:evenodd;stroke:#000000;stroke-width:3.70730209;stroke-linecap:butt;stroke-linejoin:miter;stroke-miterlimit:4;stroke-dasharray:none;stroke-opacity:1;marker-start:url(#marker6157-0)"
       d="M 589.12031,615.60389 368.66587,819.48977"
       id="path6149-3"
       inkscape:connector-curvature="0"
       sodipodi:nodetypes="cc" />
    <text
       xml:space="preserve"
       style="font-style:normal;font-weight:normal;font-size:71.90948486px;line-height:125%;font-family:sans-serif;letter-spacing:0px;word-spacing:0px;fill:#000000;fill-opacity:1;stroke:none;stroke-width:1px;stroke-linecap:butt;stroke-linejoin:miter;stroke-opacity:1"
       x="222.03737"
       y="1001.1351"
       id="text28061"
       sodipodi:linespacing="125%"
       transform="scale(1.0865378,0.92035456)"><tspan
         sodipodi:role="line"
         id="tspan28063"
         x="222.03737"
         y="1001.1351">Entrée</tspan></text>
  </g>
</svg>
